<?xml version="1.0" standalone="no"?>
<!DOCTYPE svg PUBLIC "-//W3C//DTD SVG 20010904//EN"
 "http://www.w3.org/TR/2001/REC-SVG-20010904/DTD/svg10.dtd">
<svg version="1.0" xmlns="http://www.w3.org/2000/svg"
 width="1280.000000pt" height="724.000000pt" viewBox="0 0 1280.000000 724.000000"
 preserveAspectRatio="xMidYMid meet">
<g transform="translate(0.000000,724.000000) scale(0.100000,-0.100000)"
fill="#000000" stroke="none">
<path d="M2300 5270 c-8 -5 -41 -10 -73 -10 -50 0 -58 -2 -55 -17 2 -11 21
-24 44 -32 l41 -14 -5 -154 c-5 -178 4 -193 58 -87 14 26 17 42 10 55 -19 35
-8 159 14 159 11 0 59 -54 89 -100 14 -23 15 -36 2 -145 -28 -232 -57 -348
-149 -593 -35 -92 -73 -206 -86 -253 l-22 -86 27 -29 c71 -75 147 -209 214
-379 90 -224 144 -312 245 -397 82 -69 171 -113 269 -133 100 -21 192 -52 260
-88 58 -30 59 -31 53 -67 -10 -66 -117 -344 -192 -499 -82 -169 -88 -204 -54
-272 38 -74 119 -105 315 -119 137 -10 203 -25 292 -67 67 -32 95 -71 128
-180 33 -108 92 -175 195 -222 98 -46 195 -60 397 -61 94 0 174 -4 177 -8 7
-12 -36 -201 -69 -297 -14 -44 -40 -101 -56 -128 -16 -26 -29 -49 -29 -52 0
-14 292 -137 379 -160 95 -24 358 -55 529 -62 178 -7 174 -5 147 -70 -16 -37
-55 -182 -55 -202 0 -7 23 -11 59 -11 32 0 101 -11 152 -24 89 -23 139 -43
406 -165 61 -28 155 -63 210 -78 90 -25 113 -27 283 -28 203 0 253 9 392 75
35 17 69 30 76 30 8 0 12 -19 12 -62 l0 -63 43 -26 c119 -75 313 -154 355
-146 126 25 249 61 447 131 88 31 159 49 220 56 175 19 352 -21 505 -116 40
-24 75 -42 78 -39 6 6 5 88 -4 291 -6 121 -4 142 9 147 23 9 124 -18 213 -56
106 -46 194 -62 344 -61 107 1 137 5 205 27 118 39 219 110 314 220 86 100
115 121 200 148 34 10 55 22 54 31 -1 7 -13 67 -27 133 -26 127 -60 377 -54
396 2 7 35 12 84 13 65 2 91 7 144 33 123 58 185 141 286 388 32 77 68 154 81
172 l25 32 -29 123 c-27 120 -28 130 -28 408 0 157 6 344 13 415 7 72 21 227
32 345 17 182 24 225 47 278 36 86 44 83 58 -25 6 -42 11 -53 25 -53 11 0 21
4 24 8 3 5 0 53 -6 107 -9 75 -8 100 0 103 26 8 9 19 -45 31 -32 7 -66 15 -75
17 -29 8 -20 -16 12 -34 16 -9 30 -23 30 -31 0 -21 -205 -425 -295 -581 -374
-650 -813 -1158 -1263 -1462 -150 -101 -394 -202 -602 -248 -304 -68 -694 -68
-1026 0 -776 159 -1648 652 -2605 1470 -552 472 -1179 1097 -1793 1785 -236
264 -500 574 -504 590 -2 8 6 19 17 25 33 17 25 37 -16 44 -21 3 -54 8 -73 11
-19 3 -42 1 -50 -5z m1239 -1460 c37 -47 39 -37 -32 -205 -58 -138 -66 -152
-78 -133 -12 19 -11 176 2 223 20 78 52 155 64 155 6 0 26 -18 44 -40z m1188
-1138 l62 -57 -47 -82 c-26 -45 -51 -81 -57 -79 -32 9 -65 276 -34 276 8 0 42
-26 76 -58z m5113 -389 c0 -52 -28 -395 -37 -446 -13 -80 -21 -1 -22 216 -1
168 2 214 14 237 22 43 45 39 45 -7z"/>
</g>
</svg>
